<?xml version="1.0" encoding="UTF-8"?>
<svg id="_レイヤー_2" data-name="レイヤー 2" xmlns="http://www.w3.org/2000/svg" viewBox="0 0 130 130">
  <defs>
    <style>
      .cls-1 {
        fill: #ff41c8;
      }

      .cls-1, .cls-2, .cls-3, .cls-4 {
        stroke-width: 0px;
      }

      .cls-2 {
        fill: #333;
      }

      .cls-3 {
        fill: #fff;
      }

      .cls-4 {
        fill: #16020b;
      }
    </style>
  </defs>
  <g id="_トップ" data-name="トップ">
    <g>
      <rect class="cls-3" width="130" height="130" rx="15" ry="15"/>
      <g>
        <path class="cls-2" d="M62.06,103.3l2.62,4.26h-1.68l-1.63-2.83c-.06-.12-.15-.33-.24-.56-.1.28-.15.38-.26.56l-1.64,2.83h-1.68l2.64-4.3-2.6-4.24h1.68l1.63,2.79c.15.32.18.38.26.6.09-.22.21-.49.28-.65l1.55-2.74h1.64l-2.57,4.28Z"/>
        <path class="cls-2" d="M68.27,99.02c1.41,0,2.07.15,2.68.61.84.65,1.31,1.83,1.31,3.33,0,1.87-.72,3.43-1.87,4.11-.58.32-1.36.49-2.39.49h-2.34v-8.54h2.62ZM67.02,106.32h1.01c1.02,0,1.47-.13,1.93-.52.59-.53.92-1.51.92-2.71,0-1.06-.27-1.83-.81-2.28-.41-.35-.87-.46-1.74-.46h-1.32v5.98Z"/>
      </g>
      <g>
        <path class="cls-1" d="M35,33.91c0-3.68,2.98-6.67,6.67-6.67h46.67c3.68,0,6.67,2.98,6.67,6.67v46.67c0,3.68-2.99,6.67-6.67,6.67h-46.67c-3.68,0-6.67-2.99-6.67-6.67v-46.67Z"/>
        <path class="cls-4" d="M40,32.24v50h50v-50h-50ZM56.82,53.4l3.19-8.14h5.49l-5.57,11.75,5.7,11.95h-5.55l-3.25-8.29-3.24,8.29h-5.55l5.7-11.95-5.58-11.75h5.49l3.19,8.14ZM66.78,59.62c0-2.89.49-5.04,1.46-6.46s2.4-2.13,4.27-2.13c1.35,0,2.48.59,3.39,1.76v-8.82h4.64v25h-4.18l-.21-1.79c-.94,1.41-2.16,2.12-3.65,2.12-1.84,0-3.25-.71-4.22-2.12s-1.47-3.48-1.49-6.22v-1.34h0ZM71.41,60.77c0,1.74.18,2.95.55,3.64.37.69.99,1.03,1.87,1.03s1.6-.41,2.07-1.22v-8.04c-.46-.87-1.14-1.3-2.05-1.3-.85,0-1.46.34-1.86,1.02s-.59,1.9-.59,3.65v1.22Z"/>
      </g>
    </g>
  </g>
</svg>