<?xml version="1.0" encoding="UTF-8"?>
<svg id="_レイヤー_2" data-name="レイヤー 2" xmlns="http://www.w3.org/2000/svg" xmlns:xlink="http://www.w3.org/1999/xlink" viewBox="0 0 130 130">
  <defs>
    <style>
      .cls-1 {
        fill: url(#_名称未設定グラデーション_3-3);
      }

      .cls-1, .cls-2, .cls-3, .cls-4, .cls-5 {
        stroke-width: 0px;
      }

      .cls-2 {
        fill: url(#_名称未設定グラデーション_3-2);
      }

      .cls-3 {
        fill: url(#_名称未設定グラデーション_3);
      }

      .cls-4 {
        fill: #333;
      }

      .cls-5 {
        fill: #fff;
      }
    </style>
    <linearGradient id="_名称未設定グラデーション_3" data-name="名称未設定グラデーション 3" x1="65.58" y1="-3918.3" x2="94.83" y2="-3968.96" gradientTransform="translate(0 -3900.11) scale(1 -1)" gradientUnits="userSpaceOnUse">
      <stop offset="0" stop-color="#262626" stop-opacity="0"/>
      <stop offset="1" stop-color="#262626" stop-opacity=".8"/>
    </linearGradient>
    <linearGradient id="_名称未設定グラデーション_3-2" data-name="名称未設定グラデーション 3" x1="33.33" y1="-3911.88" x2="97.32" y2="-4022.71" xlink:href="#_名称未設定グラデーション_3"/>
    <linearGradient id="_名称未設定グラデーション_3-3" data-name="名称未設定グラデーション 3" x1="50.27" y1="-3914.25" x2="96.93" y2="-3995.06" xlink:href="#_名称未設定グラデーション_3"/>
  </defs>
  <g id="_トップ" data-name="トップ">
    <g>
      <rect class="cls-5" width="130" height="130" rx="15" ry="15"/>
      <g>
        <path class="cls-4" d="M49.31,104.76c0,1.13-.04,1.37-.24,1.78-.26.51-.84.79-1.64.79-.44,0-.72-.05-1.24-.24v-1.08c.29.18.56.26.87.26s.55-.13.68-.35c.1-.18.13-.45.13-1.14v-5.92c.31.06.49.09.74.09s.42-.03.7-.09v5.89ZM49.58,97.46c0,.46-.31.67-.97.67-.72,0-1-.19-1-.67s.35-.72,1-.72.97.23.97.72Z"/>
        <path class="cls-4" d="M55.74,106.84h-1.64l-.56-.99c-.96-.14-1.46-.38-1.98-.93-.77-.82-1.14-1.98-1.14-3.6,0-2.82,1.23-4.29,3.57-4.29s3.55,1.43,3.55,4.16c0,1.67-.41,2.93-1.22,3.75-.37.38-.7.58-1.32.77l.74,1.13ZM51.78,101.42c0,2,.82,3.2,2.18,3.2s2.2-1.23,2.2-3.24-.74-2.94-2.18-2.94-2.2,1.06-2.2,2.98Z"/>
        <path class="cls-4" d="M64.42,105.72h-1.38l.03-.78c.01-.14.01-.24.01-.27l.03-.24s.01-.1.01-.19c-.23.56-.4.82-.7,1.09-.41.36-.96.56-1.57.56-.76,0-1.43-.33-1.77-.87-.36-.56-.42-.96-.42-2.64v-3.51h1.45v3.48c0,1.18.04,1.51.24,1.79.21.28.58.45,1.02.45.64,0,1.13-.29,1.37-.83.22-.46.24-.69.24-1.93v-2.96h1.45v6.85Z"/>
        <path class="cls-4" d="M66.91,102.72c.06,1.42.69,2.06,2.04,2.06.95,0,1.51-.31,2.18-1.19v1.25c-.67.74-1.37,1.04-2.46,1.04-1.98,0-3.12-1.31-3.12-3.57s1.13-3.61,3.07-3.61c1.8,0,2.85,1.22,2.85,3.32,0,.24-.01.38-.04.7h-4.52ZM70.41,101.66c-.05-.43-.12-.65-.24-.91-.27-.51-.84-.82-1.52-.82-1.06,0-1.68.61-1.73,1.73h3.5Z"/>
        <path class="cls-4" d="M72.63,98.87h1.42l-.12,1.86c.19-.78.33-1.11.63-1.46.31-.37.72-.56,1.22-.56.46,0,.77.13,1.11.46l-.06,1.51c-.49-.41-.69-.5-1.11-.5-.49,0-.93.23-1.19.61-.35.52-.45,1.14-.45,2.64v2.29s-1.45,0-1.45,0v-6.85Z"/>
        <path class="cls-4" d="M80.6,107.38h-1.46l.73-2.06-2.6-6.45h1.55l1.32,3.61c.17.46.29.99.45,1.79.19-1.14.22-1.24.38-1.79l1.14-3.61h1.49l-3,8.51Z"/>
      </g>
      <g>
        <path class="cls-3" d="M84.97,48.89c-7.76,0-14.05-6.15-14.05-13.75,0-3.02,1-5.8,2.69-8.06-3.52,2.5-5.81,6.54-5.81,11.12,0,7.59,6.29,13.75,14.05,13.75,4.68,0,8.81-2.25,11.37-5.68-2.32,1.65-5.16,2.63-8.24,2.63Z"/>
        <path class="cls-2" d="M72.48,77.92c-17.25,0-31.23-13.68-31.23-30.55,0-4.27.9-8.34,2.52-12.03-5.42,5.49-8.77,12.96-8.77,21.19,0,16.87,13.98,30.55,31.23,30.55,12.88,0,23.93-7.63,28.71-18.52-5.68,5.76-13.64,9.36-22.46,9.36Z"/>
        <path class="cls-1" d="M79.51,62.64c-12.51,0-22.64-9.92-22.64-22.15,0-3.61.9-7,2.46-10.01-4.39,4.04-7.15,9.76-7.15,16.12,0,12.23,10.14,22.15,22.64,22.15,8.82,0,16.44-4.94,20.18-12.14-4.05,3.73-9.49,6.03-15.49,6.03Z"/>
      </g>
    </g>
  </g>
</svg>