<?xml version="1.0" encoding="UTF-8"?>
<svg id="_レイヤー_2" data-name="レイヤー 2" xmlns="http://www.w3.org/2000/svg" viewBox="0 0 130 130">
  <defs>
    <style>
      .cls-1 {
        fill: #eee;
      }

      .cls-1, .cls-2, .cls-3, .cls-4, .cls-5 {
        stroke-width: 0px;
      }

      .cls-2 {
        fill: #ff6d00;
      }

      .cls-3 {
        fill: #e65100;
      }

      .cls-4 {
        fill: #333;
      }

      .cls-5 {
        fill: #fff;
      }
    </style>
  </defs>
  <g id="_トップ" data-name="トップ">
    <g>
      <rect class="cls-5" width="130" height="130" rx="15" ry="15"/>
      <g>
        <path class="cls-3" d="M90,29.24h-50l4.41,49.21,20.59,5.79,20.59-5.79,4.41-49.21h0Z"/>
        <path class="cls-2" d="M65,33.58v46.17l16.47-4.63,3.68-41.54h-20.15Z"/>
        <path class="cls-5" d="M65,58.19v-5.79h12.65l-1.03,16.64-11.62,3.76v-6.08l6.03-2.03.44-6.51h-6.47ZM78.09,46.61l.44-5.79h-13.53v5.79h13.09Z"/>
        <path class="cls-1" d="M65,66.73v6.08l-11.62-3.76-.59-7.96h5.88l.29,3.62,6.03,2.03ZM57.79,46.61h7.21v-5.79h-13.38l1.03,17.37h12.35v-5.79h-6.76l-.44-5.79Z"/>
      </g>
      <g>
        <path class="cls-4" d="M55.36,102.53v-3.51h1.37v8.54h-1.37v-3.69h-3.53v3.69h-1.37v-8.54h1.37v3.51h3.53Z"/>
        <path class="cls-4" d="M64.34,99.02v1.38h-2.51v7.16h-1.41v-7.16h-2.55v-1.38h6.47Z"/>
        <path class="cls-4" d="M73.76,107.56h-1.33l.04-5.74c.01-.19.01-.36.01-.51v-.59s.01-.38.01-.38c-.06.27-.1.45-.12.53-.04.22-.09.44-.13.67-.05.26-.1.47-.15.65l-1.75,5.38h-1.46l-1.77-5.4c-.1-.33-.12-.41-.22-1.02-.06-.4-.06-.42-.15-.88v.27q0,.12.01.47c.01.37.01.46.01.77l.05,5.8h-1.34v-8.54h2.11l1.77,5.75c.08.26.18.82.29,1.64.08-.7.12-.93.27-1.65l1.73-5.74h2.11v8.54Z"/>
        <path class="cls-4" d="M79.98,106.24v1.32h-4.75v-8.54h1.4v7.22h3.35Z"/>
      </g>
    </g>
  </g>
</svg>