<?xml version="1.0" encoding="UTF-8"?>
<svg id="_レイヤー_2" data-name="レイヤー 2" xmlns="http://www.w3.org/2000/svg" viewBox="0 0 130 130">
  <defs>
    <style>
      .cls-1 {
        fill: #020f16;
      }

      .cls-1, .cls-2, .cls-3, .cls-4 {
        stroke-width: 0px;
      }

      .cls-2 {
        fill: #03a9f4;
      }

      .cls-3 {
        fill: #333;
      }

      .cls-4 {
        fill: #fff;
      }
    </style>
  </defs>
  <g id="_トップ" data-name="トップ">
    <g>
      <rect class="cls-4" width="130" height="130" rx="15" ry="15"/>
      <g>
        <path class="cls-3" d="M37.19,97.67c1.06,0,1.4.05,1.9.33.82.44,1.25,1.25,1.25,2.33,0,1.19-.56,2.2-1.48,2.65-.53.26-1.14.36-2.09.36h-1.13v2.87h-1.38v-8.54h2.93ZM35.64,102.12h1.17c.68,0,1.02-.06,1.36-.26.47-.28.77-.81.77-1.38,0-.51-.22-.96-.58-1.21-.33-.22-.63-.28-1.42-.28h-1.29v3.14Z"/>
        <path class="cls-3" d="M41.31,97.34h1.45v2.68q-.04.36-.04.45v.17c.55-1.01,1.23-1.46,2.25-1.46.82,0,1.46.35,1.82.97.28.51.33.82.33,2.04v4.03h-1.45v-3.8c0-.86-.03-1.04-.19-1.32-.19-.33-.6-.54-1.1-.54-.56,0-1,.22-1.29.65-.27.37-.33.68-.33,1.43v3.57h-1.45v-8.87Z"/>
        <path class="cls-3" d="M54.5,102.64c0,1.17-.33,2.21-.91,2.87-.51.58-1.27.87-2.24.87s-1.69-.27-2.19-.8c-.59-.64-.92-1.67-.92-2.89,0-2.27,1.08-3.48,3.1-3.48s3.16,1.15,3.16,3.44ZM49.58,102.82c0,1.52.63,2.34,1.81,2.34s1.8-.87,1.8-2.45c0-1.45-.58-2.14-1.78-2.14s-1.83.76-1.83,2.24Z"/>
        <path class="cls-3" d="M60.09,99.42v1.35h-2.45c0,1.37,0,1.41-.01,2.69-.01.65.04,1,.17,1.25.14.28.42.45.81.45.49,0,.9-.22,1.33-.72v1.19c-.54.53-1.02.74-1.74.74s-1.34-.29-1.64-.79c-.28-.46-.33-.85-.33-2.27,0-.73.01-1.6.04-2.54h-1.1v-.93c1-.19,1.52-.85,1.86-2.29h.77l-.08,1.87h2.38Z"/>
        <path class="cls-3" d="M67.14,102.64c0,1.17-.33,2.21-.91,2.87-.51.58-1.27.87-2.24.87s-1.69-.27-2.19-.8c-.59-.64-.92-1.67-.92-2.89,0-2.27,1.08-3.48,3.1-3.48s3.16,1.15,3.16,3.44ZM62.21,102.82c0,1.52.63,2.34,1.81,2.34s1.8-.87,1.8-2.45c0-1.45-.58-2.14-1.78-2.14s-1.83.76-1.83,2.24Z"/>
        <path class="cls-3" d="M72.53,101.37c-.63-.64-1.2-.91-1.95-.91s-1.25.37-1.25.92c0,.45.29.68,1.05.81,1.72.29,2.38.85,2.38,2,0,1.32-.99,2.19-2.48,2.19-.87,0-1.47-.22-2.06-.75v-1.31c.64.67,1.19.92,1.95.92s1.27-.36,1.27-.91c0-.24-.12-.5-.29-.63-.22-.17-.28-.19-1.28-.38-1.27-.26-1.84-.87-1.84-1.95,0-1.32.99-2.18,2.5-2.18.81,0,1.37.21,2.02.72v1.46Z"/>
        <path class="cls-3" d="M73.87,97.34h1.45v2.68q-.04.36-.04.45v.17c.55-1.01,1.23-1.46,2.25-1.46.82,0,1.46.35,1.82.97.28.51.33.82.33,2.04v4.03h-1.45v-3.8c0-.86-.03-1.04-.19-1.32-.19-.33-.6-.54-1.1-.54-.56,0-1,.22-1.29.65-.27.37-.33.68-.33,1.43v3.57h-1.45v-8.87Z"/>
        <path class="cls-3" d="M87.07,102.64c0,1.17-.33,2.21-.91,2.87-.51.58-1.27.87-2.24.87s-1.69-.27-2.19-.8c-.59-.64-.92-1.67-.92-2.89,0-2.27,1.08-3.48,3.1-3.48s3.16,1.15,3.16,3.44ZM82.14,102.82c0,1.52.63,2.34,1.81,2.34s1.8-.87,1.8-2.45c0-1.45-.58-2.14-1.78-2.14s-1.83.76-1.83,2.24Z"/>
        <path class="cls-3" d="M88.22,99.36h1.37v.55c-.01.13-.03.27-.03.27l-.03.18v.24c.26-.49.41-.69.64-.9.38-.33.93-.51,1.54-.51,1.65,0,2.64,1.29,2.64,3.47,0,2.29-1.02,3.71-2.66,3.71-.93,0-1.52-.38-2.06-1.34v.38s.03.37.03.37c.01.12.01.24.01.38v1.69s-1.45,0-1.45,0v-8.5ZM89.55,102.7c0,1.57.62,2.46,1.72,2.46,1.04,0,1.68-.88,1.68-2.3s-.61-2.28-1.7-2.28-1.69.77-1.69,2.12Z"/>
      </g>
      <g>
        <path class="cls-2" d="M35,34.12c0-3.68,2.98-6.67,6.67-6.67h46.67c3.68,0,6.67,2.98,6.67,6.67v46.67c0,3.68-2.99,6.67-6.67,6.67h-46.67c-3.68,0-6.67-2.99-6.67-6.67v-46.67Z"/>
        <path class="cls-1" d="M58.36,49.41h-3.34v7.39h3.29c.91,0,1.62-.3,2.12-.9s.75-1.46.75-2.6-.25-2.12-.76-2.82-1.19-1.05-2.05-1.07Z"/>
        <path class="cls-1" d="M40,32.45v50h50v-50h-50ZM63.94,58.77c-1.38,1.35-3.29,2.02-5.73,2.02h-3.19v8.33h-4.79v-23.7h8.07c2.34,0,4.21.73,5.61,2.18,1.39,1.45,2.09,3.34,2.09,5.66s-.69,4.16-2.07,5.5ZM79.47,68.01c-1.18.95-2.74,1.43-4.65,1.43-1.29,0-2.43-.25-3.42-.76s-1.76-1.21-2.32-2.11-.84-1.87-.84-2.91h4.38c.02.8.21,1.41.56,1.81s.93.6,1.73.6c1.24,0,1.86-.56,1.86-1.68,0-.39-.19-.75-.56-1.08s-1.2-.78-2.5-1.34c-1.9-.77-3.2-1.57-3.92-2.39s-1.07-1.85-1.07-3.08c0-1.54.56-2.81,1.67-3.82,1.11-1,2.59-1.5,4.42-1.5,1.93,0,3.48.5,4.64,1.5,1.16,1,1.74,2.34,1.74,4.02h-4.61c0-1.43-.6-2.15-1.79-2.15-.49,0-.89.15-1.2.46s-.47.73-.47,1.27c0,.39.17.73.52,1.03.35.3,1.16.72,2.46,1.28,1.88.69,3.2,1.47,3.98,2.32s1.16,1.96,1.16,3.31c0,1.57-.59,2.84-1.77,3.79Z"/>
      </g>
    </g>
  </g>
</svg>