<?xml version="1.0" encoding="UTF-8"?>
<svg id="_レイヤー_2" data-name="レイヤー 2" xmlns="http://www.w3.org/2000/svg" viewBox="0 0 130 130">
  <defs>
    <style>
      .cls-1 {
        fill: #eee;
      }

      .cls-1, .cls-2, .cls-3, .cls-4, .cls-5 {
        stroke-width: 0px;
      }

      .cls-2 {
        fill: #039be5;
      }

      .cls-3 {
        fill: #0277bd;
      }

      .cls-4 {
        fill: #333;
      }

      .cls-5 {
        fill: #fff;
      }
    </style>
  </defs>
  <g id="_トップ" data-name="トップ">
    <g>
      <rect class="cls-5" width="130" height="130" rx="15" ry="15"/>
      <g>
        <path class="cls-4" d="M61.62,101.76c-.73-1.06-1.42-1.5-2.38-1.5-1.46,0-2.34,1.11-2.34,2.97,0,2,.87,3.23,2.27,3.23.6,0,1.25-.26,1.69-.67.26-.23.42-.44.77-.91l.03,1.54c-.86.92-1.66,1.31-2.73,1.31-2.11,0-3.42-1.77-3.42-4.6s1.28-4.28,3.53-4.28c1.09,0,1.77.29,2.61,1.15l-.03,1.75Z"/>
        <path class="cls-4" d="M67.8,101.34c-.4-.45-.6-.61-.97-.81-.43-.22-.92-.35-1.36-.35-.84,0-1.49.52-1.49,1.22s.29.9,1.69,1.24c.88.23,1.43.49,1.78.84.41.4.61.95.61,1.59,0,1.55-1.17,2.65-2.8,2.65-.91,0-1.59-.26-2.41-.92v-1.52c.77.88,1.45,1.23,2.37,1.23s1.52-.51,1.52-1.28c0-.72-.42-1.08-1.56-1.33-.97-.22-1.61-.51-1.98-.88-.41-.41-.61-.95-.61-1.59,0-1.5,1.18-2.57,2.83-2.57.88,0,1.59.24,2.38.84v1.64Z"/>
        <path class="cls-4" d="M74.2,101.34c-.4-.45-.6-.61-.97-.81-.43-.22-.92-.35-1.36-.35-.84,0-1.49.52-1.49,1.22s.29.9,1.69,1.24c.88.23,1.43.49,1.78.84.41.4.61.95.61,1.59,0,1.55-1.17,2.65-2.8,2.65-.91,0-1.59-.26-2.41-.92v-1.52c.77.88,1.45,1.23,2.37,1.23s1.52-.51,1.52-1.28c0-.72-.42-1.08-1.56-1.33-.97-.22-1.61-.51-1.98-.88-.41-.41-.61-.95-.61-1.59,0-1.5,1.18-2.57,2.83-2.57.88,0,1.59.24,2.38.84v1.64Z"/>
      </g>
      <g>
        <path class="cls-3" d="M90,29.24h-50l4.41,49.21,20.59,5.79,20.59-5.79,4.41-49.21h0Z"/>
        <path class="cls-2" d="M65,33.58v46.17l16.47-4.63,3.68-41.54h-20.15Z"/>
        <path class="cls-5" d="M78.38,40.82h-13.38v5.79h7.21l-.44,5.79h-6.76v5.79h6.47l-.44,6.51-6.03,2.03v6.08l11.62-3.76,1.03-16.64h0l.74-11.58Z"/>
        <path class="cls-1" d="M65,40.82v5.79h-13.09l-.44-5.79h13.53ZM58.24,52.4l.29,5.79h6.47v-5.79h-6.76ZM58.82,61.08h-5.88l.44,7.96,11.62,3.76v-6.08l-6.03-2.03-.15-3.62Z"/>
      </g>
    </g>
  </g>
</svg>