<?xml version="1.0" encoding="UTF-8"?>
<svg id="_レイヤー_2" data-name="レイヤー 2" xmlns="http://www.w3.org/2000/svg" viewBox="0 0 130 130">
  <defs>
    <style>
      .cls-1 {
        fill: none;
      }

      .cls-1, .cls-2, .cls-3, .cls-4, .cls-5, .cls-6 {
        stroke-width: 0px;
      }

      .cls-2 {
        fill: #dc9e2d;
      }

      .cls-3 {
        fill: #e6b82c;
      }

      .cls-4 {
        fill: #333;
      }

      .cls-5 {
        fill: #fff;
      }

      .cls-6 {
        fill: #ebedef;
      }
    </style>
  </defs>
  <g id="_トップ" data-name="トップ">
    <g>
      <rect class="cls-5" width="130" height="130" rx="15" ry="15"/>
      <g>
        <path class="cls-4" d="M40.8,94.18v5.39c0,1.46-.05,1.74-.33,2.25-.37.68-1.15,1.06-2.11,1.06-.78,0-1.28-.19-1.96-.72v-.54s0-.72,0-.72c.53.59,1,.82,1.64.82.5,0,.91-.19,1.13-.54.12-.18.21-.49.23-.78,0-.05,0-.32.01-.81v-5.43h1.4Z"/>
        <path class="cls-4" d="M46.11,102.72v-.26c.03-.15.03-.32.03-.32q.03-.29.03-.38v-.14c-.27.41-.42.6-.68.78-.38.31-.95.49-1.49.49-1.14,0-1.97-.79-1.97-1.87,0-.67.32-1.24.84-1.55q.49-.27,2.27-.72c.6-.15.91-.45.91-.88,0-.56-.53-.95-1.28-.95-.91,0-1.82.46-2.47,1.27v-1.38c.83-.77,1.64-1.1,2.66-1.1.87,0,1.64.32,2.01.84.31.42.4.86.4,1.91v4.26h-1.25ZM44.66,99.86c-.87.23-1.22.54-1.22,1.08s.41.91,1,.91c.69,0,1.27-.41,1.5-1.06.13-.36.17-.77.17-1.56-.28.29-.47.38-1.45.64Z"/>
        <path class="cls-4" d="M52.4,102.72h-1.78l-2.33-6.85h1.55l1.38,4.33c.09.31.12.38.18.82l.06.4.05.26c.03-.18.05-.33.06-.41l.1-.58c.01-.13.05-.29.12-.49l1.32-4.33h1.5l-2.21,6.85Z"/>
        <path class="cls-4" d="M59.41,102.72v-.26c.03-.15.03-.32.03-.32q.03-.29.03-.38v-.14c-.27.41-.42.6-.68.78-.38.31-.95.49-1.49.49-1.14,0-1.97-.79-1.97-1.87,0-.67.32-1.24.84-1.55q.49-.27,2.27-.72c.6-.15.91-.45.91-.88,0-.56-.53-.95-1.28-.95-.91,0-1.82.46-2.47,1.27v-1.38c.83-.77,1.64-1.1,2.66-1.1.87,0,1.64.32,2.01.84.31.42.4.86.4,1.91v4.26h-1.25ZM57.95,99.86c-.87.23-1.22.54-1.22,1.08s.41.91,1,.91c.69,0,1.27-.41,1.5-1.06.13-.36.17-.77.17-1.56-.28.29-.47.38-1.45.64Z"/>
        <path class="cls-4" d="M66.3,97.88c-.63-.64-1.2-.91-1.95-.91s-1.25.37-1.25.92c0,.45.29.68,1.05.81,1.71.29,2.38.84,2.38,2,0,1.32-.99,2.19-2.48,2.19-.87,0-1.47-.22-2.06-.75v-1.31c.64.67,1.19.92,1.95.92s1.27-.36,1.27-.91c0-.24-.12-.5-.29-.63-.22-.17-.28-.19-1.28-.38-1.27-.26-1.84-.87-1.84-1.95,0-1.32.99-2.18,2.5-2.18.81,0,1.37.21,2.02.72v1.46Z"/>
        <path class="cls-4" d="M72.55,98.25c-.53-.79-1.14-1.17-1.93-1.17-.51,0-1,.21-1.33.56-.32.33-.5.93-.5,1.68,0,1.47.69,2.34,1.88,2.34.82,0,1.29-.31,1.91-1.23,0,.73.01.86.03,1.39-.59.74-1.25,1.05-2.25,1.05-.87,0-1.55-.28-2.04-.83-.62-.68-.93-1.68-.93-2.85,0-2.19,1.13-3.5,3.01-3.5.93,0,1.58.27,2.19.93l-.03,1.61Z"/>
        <path class="cls-4" d="M73.85,95.87h1.42l-.12,1.86c.19-.78.33-1.11.63-1.46.31-.37.72-.56,1.22-.56.46,0,.77.13,1.11.46l-.06,1.51c-.49-.41-.69-.5-1.11-.5-.49,0-.93.23-1.19.61-.35.52-.45,1.14-.45,2.64v2.29s-1.45,0-1.45,0v-6.85Z"/>
        <path class="cls-4" d="M80.65,94.46c0,.46-.31.67-.96.67-.72,0-1-.19-1-.67s.35-.72,1-.72.96.23.96.72ZM78.95,95.87c.31.05.47.06.68.06.15,0,.32-.01.77-.06v6.85h-1.45v-6.85Z"/>
        <path class="cls-4" d="M81.8,95.87h1.37v.55c-.01.13-.03.27-.03.27l-.03.18v.24c.26-.49.41-.69.64-.9.38-.33.93-.51,1.54-.51,1.65,0,2.64,1.29,2.64,3.47,0,2.29-1.02,3.71-2.66,3.71-.93,0-1.52-.38-2.06-1.34v.38s.03.37.03.37c.01.12.01.24.01.38v1.69s-1.45,0-1.45,0v-8.5ZM83.13,99.21c0,1.57.62,2.46,1.72,2.46,1.04,0,1.68-.88,1.68-2.3s-.61-2.28-1.7-2.28-1.69.77-1.69,2.12Z"/>
        <path class="cls-4" d="M93.5,95.93v1.34h-2.45c0,1.37,0,1.41-.01,2.69-.01.65.04,1,.17,1.25.14.28.42.45.81.45.49,0,.9-.22,1.33-.72v1.19c-.54.53-1.02.74-1.74.74s-1.34-.29-1.64-.79c-.28-.46-.33-.85-.33-2.27,0-.73.01-1.6.04-2.53h-1.1v-.93c1-.19,1.52-.85,1.86-2.29h.77l-.08,1.87h2.38Z"/>
      </g>
      <g>
        <polygon class="cls-2" points="85.21 79.76 64.76 85.08 44 79.76 39.35 30.08 89.35 30.08 85.21 79.76"/>
        <polygon class="cls-3" points="64.76 33.95 64.76 81.44 81.63 76.73 85.21 34.22 64.76 33.95"/>
        <polygon class="cls-5" points="72.56 49.77 79.08 49.77 77.89 36.79 52.83 36.79 50.76 58.46 72.12 58.46 71.53 66.78 64.84 68.46 56.85 66.32 56.85 61.91 50.6 61.91 51.2 71.18 64.56 75.05 77.73 71.03 79.08 52.49 57.44 52.49 58.48 42.65 72.4 42.65 72.56 49.77"/>
        <polygon class="cls-1" points="57.44 52.49 64.76 52.49 64.76 42.65 58.48 42.65 57.44 52.49"/>
        <polygon class="cls-3" points="71.53 66.78 72.12 58.46 64.76 58.46 64.76 68.46 64.84 68.46 71.53 66.78"/>
        <polygon class="cls-3" points="64.76 33.95 64.76 36.79 77.89 36.79 79.08 49.77 72.56 49.77 72.4 42.65 64.76 42.65 64.76 52.49 79.08 52.49 77.73 71.03 64.76 74.97 64.76 81.44 81.63 76.73 85.21 34.22 64.76 33.95"/>
        <polygon class="cls-6" points="56.85 66.32 56.85 61.91 50.6 61.91 51.2 71.18 64.56 75.05 64.76 74.97 64.76 68.46 56.85 66.32"/>
        <polygon class="cls-6" points="57.44 52.49 58.48 42.65 64.76 42.65 64.76 36.79 52.83 36.79 50.76 58.46 64.76 58.46 64.76 52.49 57.44 52.49"/>
        <polygon class="cls-5" points="79.08 52.49 64.76 52.49 64.76 58.46 72.12 58.46 71.53 66.78 64.84 68.46 64.76 68.46 64.76 74.97 77.73 71.03 79.08 52.49"/>
        <polygon class="cls-5" points="72.4 42.65 72.56 49.77 79.08 49.77 77.89 36.79 64.76 36.79 64.76 42.65 72.4 42.65"/>
      </g>
    </g>
  </g>
</svg>