<?xml version="1.0" encoding="UTF-8"?>
<svg id="_レイヤー_2" data-name="レイヤー 2" xmlns="http://www.w3.org/2000/svg" viewBox="0 0 130 130">
  <defs>
    <style>
      .cls-1 {
        fill: #ff5722;
      }

      .cls-1, .cls-2, .cls-3, .cls-4 {
        stroke-width: 0px;
      }

      .cls-2 {
        fill: #333;
      }

      .cls-3 {
        fill: #fff;
      }

      .cls-4 {
        fill: #1c0802;
      }
    </style>
  </defs>
  <g id="_トップ" data-name="トップ">
    <g>
      <rect class="cls-3" width="130" height="130" rx="15" ry="15"/>
      <g>
        <path class="cls-2" d="M39.82,97.67v8.54h-1.37v-8.54h1.37Z"/>
        <path class="cls-2" d="M41.25,97.34h1.5v8.87h-1.5v-8.87Z"/>
        <path class="cls-2" d="M44.14,97.34h1.5v8.87h-1.5v-8.87Z"/>
        <path class="cls-2" d="M52.81,106.21h-1.38l.03-.78c.01-.14.01-.24.01-.27l.03-.24s.01-.1.01-.19c-.23.56-.4.82-.7,1.09-.41.36-.96.56-1.57.56-.76,0-1.43-.33-1.77-.87-.36-.56-.42-.96-.42-2.64v-3.51h1.45v3.48c0,1.18.04,1.51.24,1.79.21.28.58.45,1.02.45.64,0,1.13-.29,1.37-.83.22-.46.24-.69.24-1.93v-2.96h1.45v6.85Z"/>
        <path class="cls-2" d="M58.44,101.37c-.63-.64-1.2-.91-1.95-.91s-1.25.37-1.25.92c0,.45.29.68,1.05.81,1.71.29,2.38.85,2.38,2,0,1.32-.99,2.19-2.48,2.19-.87,0-1.47-.22-2.06-.75v-1.31c.64.67,1.19.92,1.95.92s1.27-.36,1.27-.91c0-.24-.12-.5-.29-.63-.22-.17-.28-.19-1.28-.38-1.27-.26-1.84-.87-1.84-1.95,0-1.32.99-2.18,2.5-2.18.81,0,1.37.21,2.02.72v1.46Z"/>
        <path class="cls-2" d="M64.22,99.42v1.35h-2.45c0,1.37,0,1.41-.01,2.69-.01.65.04,1,.17,1.25.14.28.42.45.81.45.49,0,.9-.22,1.33-.72v1.19c-.54.53-1.02.74-1.74.74s-1.34-.29-1.64-.79c-.28-.46-.33-.85-.33-2.27,0-.73.01-1.6.04-2.54h-1.1v-.93c1-.19,1.52-.85,1.86-2.29h.77l-.08,1.87h2.38Z"/>
        <path class="cls-2" d="M65.28,99.36h1.42l-.12,1.86c.19-.78.33-1.11.63-1.46.31-.37.72-.56,1.22-.56.46,0,.77.13,1.11.46l-.06,1.51c-.49-.41-.69-.5-1.11-.5-.49,0-.93.23-1.19.62-.35.52-.45,1.14-.45,2.64v2.29s-1.45,0-1.45,0v-6.85Z"/>
        <path class="cls-2" d="M74.25,106.21v-.26c.03-.15.03-.32.03-.32q.03-.29.03-.38v-.14c-.27.41-.42.6-.68.78-.38.31-.95.49-1.49.49-1.14,0-1.97-.79-1.97-1.87,0-.66.32-1.24.84-1.55q.49-.27,2.27-.72c.6-.15.91-.45.91-.88,0-.56-.52-.95-1.28-.95-.91,0-1.82.46-2.47,1.27v-1.38c.83-.77,1.64-1.1,2.66-1.1.87,0,1.64.32,2.01.85.31.42.4.86.4,1.91v4.26h-1.25ZM72.79,103.36c-.87.23-1.22.54-1.22,1.07s.41.91,1,.91c.69,0,1.27-.41,1.5-1.06.13-.36.17-.77.17-1.56-.28.29-.47.38-1.45.64Z"/>
        <path class="cls-2" d="M81.33,99.42v1.35h-2.45c0,1.37,0,1.41-.01,2.69-.01.65.04,1,.17,1.25.14.28.42.45.81.45.49,0,.9-.22,1.33-.72v1.19c-.54.53-1.02.74-1.74.74s-1.34-.29-1.64-.79c-.28-.46-.33-.85-.33-2.27,0-.73.01-1.6.04-2.54h-1.1v-.93c1-.19,1.52-.85,1.86-2.29h.77l-.08,1.87h2.38Z"/>
        <path class="cls-2" d="M88.38,102.64c0,1.17-.33,2.21-.91,2.87-.51.58-1.27.87-2.24.87s-1.69-.27-2.19-.8c-.59-.64-.92-1.67-.92-2.89,0-2.27,1.08-3.48,3.1-3.48s3.16,1.15,3.16,3.44ZM83.45,102.82c0,1.52.63,2.34,1.81,2.34s1.8-.87,1.8-2.45c0-1.45-.58-2.14-1.78-2.14s-1.83.76-1.83,2.24Z"/>
        <path class="cls-2" d="M89.53,99.36h1.42l-.12,1.86c.19-.78.33-1.11.63-1.46.31-.37.72-.56,1.22-.56.46,0,.77.13,1.11.46l-.06,1.51c-.49-.41-.69-.5-1.11-.5-.49,0-.93.23-1.19.62-.35.52-.45,1.14-.45,2.64v2.29s-1.45,0-1.45,0v-6.85Z"/>
      </g>
      <g>
        <path class="cls-1" d="M35,34.12c0-3.68,2.98-6.67,6.67-6.67h46.67c3.68,0,6.67,2.98,6.67,6.67v46.67c0,3.68-2.99,6.67-6.67,6.67h-46.67c-3.68,0-6.67-2.99-6.67-6.67v-46.67Z"/>
        <path class="cls-4" d="M40,32.45v50h50v-50h-50ZM64.48,69.12l-1.27-4.85h-6.53l-1.27,4.85h-5.06l7.4-23.7h4.38l7.45,23.7h-5.11ZM76.42,69.12h-4.62v-17.61h4.62v17.61ZM75.92,48.71c-.45.47-1.06.7-1.83.7s-1.38-.23-1.83-.7-.68-1.05-.68-1.76.23-1.3.68-1.76,1.06-.68,1.82-.68,1.37.23,1.82.68.68,1.04.68,1.76c0,.71-.22,1.29-.67,1.76Z"/>
        <path class="cls-4" d="M57.73,60.28h4.43l-2.21-8.45-2.21,8.45Z"/>
      </g>
    </g>
  </g>
</svg>