<?xml version="1.0" encoding="UTF-8"?>
<svg id="_レイヤー_2" data-name="レイヤー 2" xmlns="http://www.w3.org/2000/svg" viewBox="0 0 150 150">
  <defs>
    <style>
      .cls-1 {
        fill: #f5b659;
      }

      .cls-1, .cls-2, .cls-3, .cls-4, .cls-5, .cls-6, .cls-7, .cls-8, .cls-9 {
        stroke-width: 0px;
      }

      .cls-2 {
        fill: #00424e;
      }

      .cls-3 {
        fill: #8ec536;
      }

      .cls-4 {
        fill: #f29a76;
      }

      .cls-5 {
        fill: #66cded;
      }

      .cls-6 {
        fill: #008c8d;
      }

      .cls-7 {
        fill: #fff;
      }

      .cls-8 {
        fill: #f1625c;
      }

      .cls-9 {
        fill: #93d3d4;
      }
    </style>
  </defs>
  <g id="_ローディング画面" data-name="ローディング画面">
    <g>
      <g>
        <path class="cls-3" d="M149.1,75h-13.65c-.9,0-1.2,1.65-.75,2.4,1.05,1.5,1.5,3.6,1.05,5.7-.6,2.85-2.85,5.1-5.7,5.7-4.8.9-8.85-2.7-8.85-7.2,0-1.5.45-3,1.35-4.2.6-.75.15-2.25-.75-2.25h-13.65c0,9.15-3.75,17.4-9.75,23.4l9.6,9.6c.6.6-.15,1.95-1.2,2.1-1.35.3-2.85.9-3.9,2.1-3.3,3.3-2.85,8.7,1.2,11.4,2.4,1.65,5.7,1.65,8.1,0,1.8-1.2,2.85-3,3.3-4.8.15-.9,1.5-1.8,2.1-1.2l9.6,9.6h0c13.65-13.35,21.9-31.95,21.9-52.35Z"/>
        <path class="cls-7" d="M127.35,128.25c-.3,0-.45-.15-.6-.3l-9.6-9.6c-.3,0-.6.45-.6.6-.45,2.25-1.65,4.2-3.6,5.4-2.7,1.8-6.45,1.8-9.15,0-2.1-1.35-3.45-3.6-3.75-6.15s.6-4.95,2.4-6.75c1.2-1.2,2.7-1.95,4.35-2.25.3,0,.6-.45.6-.75l-9.6-9.3c-.15-.15-.3-.45-.3-.6,0-.3.15-.45.3-.6,6.15-6.15,9.45-14.1,9.45-22.8,0-.45.45-.9.9-.9h13.65c.6,0,1.2.45,1.65,1.05.45.9.45,1.95-.15,2.7-.75,1.05-1.2,2.4-1.2,3.6,0,1.95.9,3.75,2.4,4.95,1.5,1.2,3.45,1.65,5.4,1.35,2.55-.45,4.5-2.55,4.95-4.95.3-1.8,0-3.45-.9-4.95-.6-.9-.45-2.1,0-2.85.3-.6.9-1.05,1.5-1.05h13.65c.45,0,.9.45.9.9,0,20.1-7.8,38.85-21.9,53.1-.3.15-.45.15-.75.15ZM117.3,116.55c.45,0,.9.15,1.2.45l9,9c13.2-13.5,20.55-31.2,20.7-50.1h-12.6c-.15.15-.15.75,0,.9,1.2,1.8,1.65,4.2,1.2,6.45-.6,3.15-3.3,5.85-6.45,6.45-2.55.45-5.1-.15-6.9-1.8-1.95-1.65-3-3.9-3-6.45,0-1.65.45-3.3,1.5-4.8.15-.15,0-.75-.15-.9h-12.6c-.3,8.4-3.45,16.35-9.3,22.5l9,9c.45.45.6,1.2.3,1.8-.3.9-1.05,1.65-1.95,1.8-1.35.3-2.4.9-3.45,1.8-1.35,1.35-2.1,3.3-1.8,5.25.15,1.95,1.2,3.6,2.85,4.8,2.1,1.35,4.95,1.5,7.05,0,1.5-1.05,2.55-2.55,2.85-4.2.15-1.05,1.2-1.8,1.95-2.1.15.15.3.15.6.15Z"/>
      </g>
      <g>
        <path class="cls-1" d="M127.35,22.65h0l-9.6,9.6c-.6.6.3,1.95,1.2,2.1,1.8.3,3.6,1.5,4.8,3.3,1.65,2.4,1.65,5.7,0,8.1-2.7,4.05-8.1,4.35-11.4,1.2-1.05-1.05-1.8-2.4-2.1-3.9-.15-.9-1.5-1.65-2.1-1.2l-9.6,9.6c6.45,6.45,9.75,15,9.75,23.4h13.65c.9,0,1.2,1.5.75,2.25-.75,1.2-1.35,2.7-1.35,4.2,0,4.5,4.2,8.1,8.85,7.2,2.85-.6,5.1-2.85,5.7-5.7.45-2.1,0-4.05-1.05-5.7-.45-.75-.15-2.4.75-2.4h13.65c-.15-18.6-7.35-37.65-21.9-52.05Z"/>
        <path class="cls-7" d="M128.55,89.85c-1.95,0-3.75-.6-5.25-1.95-1.95-1.65-3-3.9-3-6.45,0-1.65.45-3.3,1.5-4.8.15-.15,0-.75-.15-.9h-13.5c-.45,0-.9-.45-.9-.9,0-8.4-3.45-16.5-9.45-22.65-.15-.15-.3-.45-.3-.6,0-.3.15-.45.3-.6l9.6-9.6c.45-.45,1.2-.6,1.8-.45.9.3,1.65,1.05,1.8,1.95.3,1.35.9,2.4,1.8,3.45,1.35,1.35,3.3,2.1,5.25,1.8,1.95-.15,3.6-1.2,4.8-2.85,1.35-2.1,1.5-4.95,0-7.05-1.05-1.5-2.55-2.55-4.2-2.85-1.05-.15-1.8-1.2-2.1-1.95-.15-.75-.15-1.35.3-1.8l9.6-9.6c.3-.3.9-.3,1.35,0,14.1,14.1,21.9,33,21.9,53.1,0,.45-.45.9-.9.9h-13.5c-.15.15-.15.75,0,.9,1.2,1.8,1.65,4.2,1.2,6.45-.6,3.15-3.3,5.85-6.45,6.45-.3,0-.9,0-1.5,0ZM109.05,74.1h12.75c.6,0,1.2.45,1.65,1.05.45.9.45,1.95-.15,2.7-.75,1.05-1.2,2.4-1.2,3.6,0,1.95.9,3.75,2.4,4.95s3.45,1.65,5.4,1.35c2.55-.45,4.5-2.55,4.95-4.95.3-1.8,0-3.45-.9-4.95-.6-.9-.45-2.1,0-2.85.3-.6.9-1.05,1.5-1.05h12.75c-.3-18.9-7.65-36.6-20.7-50.1l-9,9c0,.3.45.6.6.6,2.25.45,4.2,1.65,5.4,3.6,1.8,2.7,1.8,6.45,0,9.15-1.35,2.1-3.6,3.45-6.15,3.75-2.55.3-4.95-.6-6.75-2.4-1.2-1.2-1.95-2.7-2.25-4.35,0-.3-.6-.6-.75-.6l-8.85,9c5.85,6.15,9.15,13.95,9.3,22.5Z"/>
      </g>
      <g>
        <path class="cls-8" d="M75,.9h0v13.65c0,.9,1.65,1.2,2.4.75,1.5-1.05,3.6-1.5,5.7-1.05,2.85.6,5.1,2.85,5.7,5.7.9,4.8-2.7,8.85-7.2,8.85-1.5,0-3-.45-4.2-1.35-.75-.6-2.25-.15-2.25.75v13.65c9.15,0,17.4,3.75,23.4,9.75l9.6-9.6c.6-.6,1.95.15,2.1,1.2.3,1.35.9,2.85,2.1,3.9,3.3,3.3,8.7,2.85,11.4-1.2,1.65-2.4,1.65-5.7,0-8.1-1.2-1.8-3-2.85-4.8-3.3-.9-.15-1.8-1.5-1.2-2.1l9.6-9.6h0C114,9.3,95.4.9,75,.9Z"/>
        <path class="cls-7" d="M98.4,52.5c-.3,0-.45-.15-.6-.3-6.15-6.15-14.1-9.45-22.8-9.45-.45,0-.9-.45-.9-.9v-13.65c0-.6.45-1.2,1.05-1.65.9-.45,1.95-.45,2.7.15,2.7,1.8,6.6,1.35,8.7-1.2,1.2-1.5,1.65-3.45,1.35-5.4-.45-2.55-2.55-4.5-4.95-4.95-1.8-.3-3.45,0-4.95.9-.9.6-2.1.45-2.85,0-.6-.3-1.05-.9-1.05-1.5V.9c0-.3.15-.45.3-.6s.45-.3.6-.3c20.1,0,38.85,7.8,53.1,21.9.3.3.3.9,0,1.35l-9.6,9.6c0,.3.45.6.6.6,2.25.45,4.2,1.65,5.4,3.6,1.8,2.7,1.8,6.45,0,9.15-1.35,2.1-3.6,3.45-6.15,3.75-2.55.3-4.95-.6-6.75-2.4-1.2-1.2-1.95-2.7-2.25-4.35,0-.3-.6-.6-.75-.6l-9.6,9.6c-.15.3-.3.3-.6.3ZM75.9,40.95c8.4.3,16.35,3.45,22.5,9.3l9-9c.45-.45,1.2-.6,1.8-.45.9.3,1.65,1.05,1.8,1.95.3,1.35.9,2.4,1.8,3.45,1.35,1.35,3.3,2.1,5.25,1.8,1.95-.15,3.6-1.2,4.8-2.85,1.35-2.1,1.5-4.95,0-7.05-1.05-1.5-2.55-2.55-4.2-2.85-1.05-.15-1.8-1.2-2.1-1.95-.15-.75-.15-1.35.3-1.8l9-9C112.35,9.3,94.65,1.95,75.75,1.8v12.6c.15.15.75.15.9,0,1.8-1.2,4.2-1.65,6.45-1.2,3.15.6,5.85,3.3,6.45,6.45.45,2.55-.15,5.1-1.8,6.9-1.65,1.95-3.9,3-6.45,3-1.65,0-3.3-.45-4.8-1.5-.15-.15-.75,0-.9.15l.3,12.75Z"/>
      </g>
      <g>
        <path class="cls-9" d="M22.65,22.65h0l9.6,9.6c.6.6,1.95-.3,2.1-1.2.3-1.8,1.5-3.6,3.3-4.8,2.4-1.65,5.7-1.65,8.1,0,4.05,2.7,4.35,8.1,1.2,11.4-1.05,1.05-2.4,1.8-3.9,2.1-.9.15-1.65,1.5-1.2,2.1l9.6,9.6c6.45-6.45,15-9.75,23.4-9.75v-13.5c0-.9,1.5-1.2,2.25-.75,1.2.75,2.7,1.35,4.2,1.35,4.5,0,8.1-4.2,7.2-8.85-.6-2.85-2.85-5.1-5.7-5.7-2.1-.45-4.05,0-5.7,1.05-.75.45-2.4.15-2.4-.75V.9h0c-18.6,0-37.65,7.2-52.05,21.75Z"/>
        <path class="cls-7" d="M51.6,52.5c-.3,0-.45-.15-.6-.3l-9.6-9.6c-.45-.45-.6-1.2-.3-1.8.3-.9,1.05-1.65,1.95-1.8,1.35-.3,2.4-.9,3.45-1.8,1.35-1.35,2.1-3.3,1.8-5.25-.15-1.95-1.2-3.6-2.85-4.8-2.1-1.35-4.95-1.5-7.05,0-1.5,1.05-2.55,2.55-2.85,4.2-.15,1.05-1.2,1.8-1.95,2.1-.75.15-1.35.15-1.8-.3l-9.6-9.6c-.15-.15-.3-.45-.3-.6,0-.3.15-.45.3-.6C36.3,8.25,55.2.45,75.3.45c.45,0,.9.45.9.9v13.5c.15.15.75.15.9,0,1.8-1.2,4.2-1.65,6.45-1.2,3.15.6,5.85,3.3,6.45,6.45.45,2.55-.15,5.1-1.8,6.9-1.65,1.95-3.9,3-6.45,3-1.65,0-3.3-.45-4.8-1.5-.15-.15-.75,0-.9.15v13.5c0,.45-.45.9-.9.9-8.55,0-16.65,3.3-22.8,9.45-.3-.15-.45,0-.75,0ZM41.7,24.15c1.65,0,3.3.45,4.65,1.35,2.1,1.35,3.45,3.6,3.75,6.15.3,2.55-.6,4.95-2.4,6.75-1.2,1.2-2.7,1.95-4.35,2.25-.3,0-.6.45-.6.75l9,8.85c6.15-5.85,14.1-9.15,22.5-9.3v-12.75c0-.6.45-1.2,1.05-1.65.9-.45,1.95-.45,2.7.15,2.7,1.8,6.6,1.35,8.7-1.2,1.2-1.5,1.65-3.45,1.35-5.4-.45-2.55-2.55-4.5-4.95-4.95-1.8-.3-3.45,0-4.95.9-.9.6-2.1.45-2.85,0-.6-.3-1.05-.9-1.05-1.5V1.95c-18.9.3-36.6,7.65-50.1,20.7l8.85,8.85c.3,0,.6-.45.6-.6.45-2.25,1.65-4.2,3.6-5.4,1.35-.9,2.85-1.35,4.5-1.35Z"/>
      </g>
      <g>
        <path class="cls-4" d="M.9,75h13.65c.9,0,1.2-1.65.75-2.4-1.05-1.5-1.5-3.6-1.05-5.7.6-2.85,2.85-5.1,5.7-5.7,4.65-.9,8.85,2.7,8.85,7.35,0,1.5-.45,3-1.35,4.2-.6.75-.15,2.25.75,2.25h13.65c0-9.15,3.75-17.4,9.75-23.4l-9.6-9.75c-.6-.6.15-1.95,1.2-2.1,1.35-.3,2.85-.9,3.9-2.1,3.3-3.3,2.85-8.7-1.2-11.4-2.4-1.65-5.7-1.65-8.1,0-1.8,1.2-2.85,3-3.3,4.8-.15.9-1.5,1.8-2.1,1.2l-9.6-9.6h0C9.3,36,.9,54.6.9,75Z"/>
        <path class="cls-7" d="M41.85,75.9h-13.65c-.6,0-1.2-.45-1.65-1.05-.45-.9-.45-1.95.15-2.7.75-1.05,1.2-2.4,1.2-3.6,0-1.95-.9-3.75-2.4-4.95-1.5-1.2-3.45-1.65-5.4-1.35-2.55.45-4.5,2.55-4.95,4.95-.3,1.8,0,3.45.9,4.95.6.9.45,2.1,0,2.85-.3.6-.9,1.05-1.5,1.05H.9c-.45,0-.9-.45-.9-.9,0-20.1,7.8-38.85,21.9-53.1.3-.3.9-.3,1.35,0l9.6,9.6c.3,0,.6-.45.6-.6.45-2.25,1.65-4.2,3.6-5.4,2.7-1.8,6.45-1.8,9.15,0,2.1,1.35,3.45,3.6,3.75,6.15s-.6,4.95-2.4,6.75c-1.2,1.2-2.7,1.95-4.35,2.25-.3,0-.6.45-.6.75l9.6,9.6c.3.3.3.9,0,1.35-6,5.85-9.3,13.95-9.3,22.5,0,.45-.45.9-1.05.9ZM21.45,60.15c1.95,0,3.75.6,5.25,1.95,1.95,1.65,3,3.9,3,6.45,0,1.65-.45,3.3-1.5,4.8-.15.15,0,.75.15.9h12.6c.3-8.4,3.45-16.35,9.3-22.5l-9-9c-.45-.45-.6-1.2-.3-1.8.3-.9,1.05-1.65,1.95-1.8,1.35-.3,2.4-.9,3.45-1.8,1.35-1.35,2.1-3.3,1.8-5.25-.15-1.95-1.2-3.6-2.85-4.8-2.1-1.35-4.95-1.5-7.05,0-1.5,1.05-2.55,2.55-2.85,4.2-.15,1.05-1.2,1.8-1.95,2.1-.75.15-1.35.15-1.8-.3l-9-9C9.45,37.8,2.1,55.5,1.95,74.4h12.6c.15-.15.15-.75,0-.9-1.2-1.8-1.65-4.2-1.2-6.45.6-3.3,3.3-5.85,6.45-6.45.45-.45,1.05-.45,1.65-.45Z"/>
      </g>
      <g>
        <path class="cls-2" d="M22.65,127.35h0l9.6-9.6c.6-.6-.3-1.95-1.2-2.1-1.8-.3-3.6-1.5-4.8-3.3-1.65-2.4-1.65-5.7,0-8.1,2.7-4.05,8.1-4.35,11.4-1.2,1.05,1.05,1.8,2.4,2.1,3.9.15.9,1.5,1.65,2.1,1.2l9.6-9.6c-6.45-6.45-9.75-15-9.75-23.4h-13.65c-.9,0-1.2-1.5-.75-2.25,1.05-1.35,1.5-2.85,1.5-4.35,0-4.5-4.2-8.1-8.85-7.2-2.85.6-5.1,2.85-5.7,5.7-.45,2.1,0,4.05,1.05,5.7.45.75.15,2.4-.75,2.4H.9c0,18.75,7.35,37.8,21.75,52.2Z"/>
        <path class="cls-7" d="M22.65,128.25c-.3,0-.45-.15-.6-.3C7.95,113.85.15,94.95.15,74.85c0-.45.45-.9.9-.9h13.5c.15-.15.15-.75,0-.9-1.2-1.8-1.65-4.2-1.2-6.45.6-3.3,3.3-5.85,6.45-6.45,2.55-.45,5.1.15,6.9,1.8,1.95,1.65,3,3.9,3,6.45,0,1.65-.45,3.3-1.5,4.8-.15.15,0,.75.15.9h13.5c.45,0,.9.45.9.9,0,8.55,3.3,16.65,9.45,22.8.3.3.3.9,0,1.35l-9.6,9.6c-.45.45-1.2.6-1.8.45-.9-.3-1.65-1.05-1.8-1.95-.3-1.35-.9-2.4-1.8-3.45-1.35-1.35-3.3-2.1-5.25-1.8-1.95.15-3.6,1.2-4.8,2.85-1.35,2.1-1.5,4.95,0,7.05,1.05,1.5,2.55,2.55,4.2,2.85,1.05.15,1.8,1.2,2.1,1.95.15.75.15,1.35-.3,1.8l-9.6,9.6c-.45.15-.6.15-.9.15ZM1.95,75.9c.3,18.9,7.65,36.6,20.7,50.1l8.85-8.85c0-.3-.45-.6-.6-.6-2.25-.45-4.2-1.65-5.4-3.6-1.8-2.7-1.8-6.45,0-9.15,1.35-2.1,3.6-3.45,6.15-3.75s4.95.6,6.75,2.4c1.2,1.2,1.95,2.7,2.25,4.35,0,.3.45.6.75.6l8.85-9c-5.85-6.15-9.15-14.1-9.3-22.5h-12.75c-.6,0-1.2-.45-1.65-1.05-.45-.9-.45-1.95.15-2.7.75-1.05,1.2-2.4,1.2-3.6,0-1.95-.9-3.75-2.4-4.95-1.5-1.2-3.45-1.65-5.4-1.35-2.55.45-4.5,2.55-4.95,4.95-.3,1.8,0,3.45.9,4.95.6.9.45,2.1,0,2.85-.3.6-.9,1.05-1.5,1.05H1.95v-.15Z"/>
      </g>
      <g>
        <path class="cls-6" d="M75,149.1h0v-13.65c0-.9-1.65-1.2-2.4-.75-1.5,1.05-3.6,1.5-5.7,1.05-2.85-.6-5.1-2.85-5.7-5.7-.9-4.8,2.7-8.85,7.2-8.85,1.5,0,3,.45,4.2,1.35.75.6,2.25.15,2.25-.75v-13.65c-9.15,0-17.4-3.75-23.4-9.75l-9.6,9.6c-.6.6-1.95-.15-2.1-1.2-.3-1.35-.9-2.85-2.1-3.9-3.3-3.3-8.7-2.85-11.4,1.2-1.65,2.4-1.65,5.7,0,8.1,1.2,1.8,3,2.85,4.8,3.3.9.15,1.8,1.5,1.2,2.1l-9.6,9.6h0c13.35,13.5,31.95,21.9,52.35,21.9Z"/>
        <path class="cls-7" d="M75,150c-20.1,0-38.85-7.8-53.1-21.9-.15-.15-.3-.45-.3-.6,0-.3.15-.45.3-.6l9.6-9.6c0-.3-.45-.6-.6-.6-2.25-.45-4.2-1.65-5.4-3.6-1.8-2.7-1.8-6.45,0-9.15,1.35-2.1,3.6-3.45,6.15-3.75,2.55-.3,4.95.6,6.75,2.4,1.2,1.2,1.95,2.7,2.25,4.35,0,.3.45.6.75.6l9.6-9.6c.3-.3.9-.3,1.35,0,6.15,6.15,14.1,9.45,22.8,9.45.45,0,.9.45.9.9v13.65c0,.6-.45,1.2-1.05,1.65-.9.45-1.95.45-2.7-.15-2.7-1.8-6.6-1.35-8.7,1.2-1.2,1.5-1.65,3.45-1.35,5.4.45,2.55,2.55,4.5,4.95,4.95,1.8.3,3.45,0,4.95-.9.9-.6,2.1-.45,2.85,0,.6.3,1.05.9,1.05,1.5v13.65c-.15.3-.45.75-1.05.75ZM24,127.35c13.5,13.2,31.2,20.55,50.1,20.7v-12.6c-.15-.15-.75-.15-.9,0-1.8,1.2-4.2,1.65-6.45,1.2-3.15-.6-5.85-3.3-6.45-6.45-.45-2.55.15-5.1,1.8-6.9,1.65-1.95,3.9-3,6.45-3,1.65,0,3.3.45,4.8,1.5.15.15.75,0,.9-.15v-12.6c-8.4-.3-16.35-3.45-22.5-9.3l-9,9c-.45.45-1.2.6-1.8.45-.9-.3-1.65-1.05-1.8-1.95-.3-1.35-.9-2.4-1.8-3.45-1.35-1.35-3.3-2.1-5.25-1.8-1.95.15-3.6,1.2-4.8,2.85-1.35,2.1-1.5,4.95,0,7.05,1.05,1.5,2.55,2.55,4.2,2.85,1.05.15,1.8,1.2,2.1,1.95.15.75.15,1.35-.3,1.8l-9.3,8.85Z"/>
      </g>
      <g>
        <path class="cls-5" d="M127.35,127.35h0l-9.6-9.6c-.6-.6-1.95.3-2.1,1.2-.3,1.8-1.5,3.6-3.3,4.8-2.4,1.65-5.7,1.65-8.1,0-4.05-2.7-4.35-8.1-1.2-11.4,1.05-1.05,2.4-1.8,3.9-2.1.9-.15,1.65-1.5,1.2-2.1l-9.6-9.6c-6.45,6.45-15,9.75-23.4,9.75v13.65c0,.9-1.5,1.2-2.25.75-1.2-.75-2.7-1.35-4.2-1.35-4.5,0-8.1,4.2-7.2,8.85.6,2.85,2.85,5.1,5.7,5.7,2.1.45,4.05,0,5.7-1.05.75-.45,2.4-.15,2.4.75v13.65h0c18.6-.15,37.65-7.35,52.05-21.9Z"/>
        <path class="cls-7" d="M75,150c-.45,0-.9-.45-.9-.9v-13.5c-.15-.15-.75-.15-.9,0-1.8,1.2-4.2,1.65-6.45,1.2-3.15-.6-5.85-3.3-6.45-6.45-.45-2.55.15-5.1,1.8-6.9,1.65-1.95,3.9-3,6.45-3,1.65,0,3.3.45,4.8,1.5.15.15.75,0,.9-.15v-13.5c0-.45.45-.9.9-.9,8.55,0,16.65-3.3,22.8-9.45.3-.3.9-.3,1.35,0l9.6,9.6c.45.45.6,1.2.3,1.8-.3.9-1.05,1.65-1.95,1.8-1.35.3-2.4.9-3.45,1.8-1.35,1.35-2.1,3.3-1.8,5.25.15,1.95,1.2,3.6,2.85,4.8,2.1,1.35,4.95,1.5,7.05,0,1.5-1.05,2.55-2.55,2.85-4.2.15-1.05,1.2-1.8,1.95-2.1.75-.15,1.35-.15,1.8.3l9.6,9.6c.15.15.3.45.3.6,0,.3-.15.45-.3.6-14.25,14.4-33,22.2-53.1,22.2ZM73.5,133.5c.6,0,1.05.15,1.5.3.6.3,1.05.9,1.05,1.5v12.75c18.9-.3,36.6-7.65,50.1-20.7l-8.85-8.85c-.3,0-.6.45-.6.6-.45,2.25-1.65,4.2-3.6,5.4-2.7,1.8-6.45,1.8-9.15,0-2.1-1.35-3.45-3.6-3.75-6.15-.3-2.55.6-4.95,2.4-6.75,1.2-1.2,2.7-1.95,4.35-2.25.3,0,.6-.45.6-.75l-9-8.85c-6.15,5.85-14.1,9.15-22.5,9.3v12.75c0,.6-.45,1.2-1.05,1.65-.9.45-1.95.45-2.7-.15-2.7-1.8-6.6-1.35-8.7,1.2-1.2,1.5-1.65,3.45-1.35,5.4.45,2.55,2.55,4.5,4.95,4.95,1.8.3,3.45,0,4.95-.9.45-.3.9-.45,1.35-.45Z"/>
      </g>
    </g>
  </g>
</svg>