<?xml version="1.0" encoding="UTF-8"?>
<svg id="_レイヤー_1" data-name="レイヤー 1" xmlns="http://www.w3.org/2000/svg" version="1.1" viewBox="0 0 160 30">
  <defs>
    <style>
      .cls-1 {
        fill: #f5b659;
      }

      .cls-1, .cls-2, .cls-3, .cls-4, .cls-5, .cls-6, .cls-7, .cls-8, .cls-9, .cls-10 {
        stroke-width: 0px;
      }

      .cls-2 {
        fill: #00424e;
      }

      .cls-11 {
        isolation: isolate;
      }

      .cls-3 {
        fill: #8ec536;
      }

      .cls-4 {
        fill: #f29a76;
      }

      .cls-5 {
        fill: #66cded;
      }

      .cls-6 {
        fill: #008c8d;
      }

      .cls-7 {
        fill: #333;
      }

      .cls-8 {
        fill: #fff;
      }

      .cls-9 {
        fill: #f1625c;
      }

      .cls-10 {
        fill: #93d3d4;
      }
    </style>
  </defs>
  <g class="cls-11">
    <path class="cls-7" d="M6.4,24.9c-.9-.3-1.7-.9-2.3-1.7-.7-.9-1.2-1.7-1.4-2.8-.3-1.1-.4-2.1-.3-3.3,0-1.1.4-2,.7-3,.3-1,.7-2,1-2.8h-1.5l-2.4.2v-4.7h1.7l8.4.8v1l-.2,2.6-.6.3c-.8,1.2-1.4,2.3-1.9,3.6-.5,1.3-.8,2.6-.8,4.1,0,.7.3,1.3.8,1.7,1.2.7,2.6,1,4,.9.9,0,1.6-.5,2.1-1.1.5-.7.9-1.6,1.1-2.4,0-.9.2-1.9,0-2.8v-1.8c0,0,0-2.9,0-2.9h.9l6,.7v3.4l-3.3.3v2.1c0,1.3-.2,2.4-.6,3.5-.4,1.2-1,2.2-1.9,3.1-.9.9-2,1.4-3.1,1.7-1.2.3-2.4.4-3.8.3-1,0-1.8-.4-2.6-.8Z"/>
    <path class="cls-7" d="M42.7,18.4h-5.7c0,0-8.6,0-8.6,0h-4.6v-.9l.4-3.7h.7l4.2.2h11.6c0,.1,3,.3,3,.3v4.2c.1,0-1,0-1,0Z"/>
    <path class="cls-7" d="M56.1,25v-.5c.5-.9.8-1.9.9-2.9h-.5l-2.4.3c-1,0-1.9-.4-2.6-1.1-.8-1.1-1.1-2.4-.9-4,.2-1.1.7-2,1.6-2.9.8-.7,1.7-1,2.9-.9l2.4,1v-.6l-.2-1.4h-4.5c0,0-6.1,0-6.1,0v-.6l.3-4.8h1.1l8.7.7v-.7l-.2-1.1,5.4-.5.2,2.6,4.9.2v3.4c0,0-4.8.3-4.8.3,0,2.7-.3,5.4-.7,7.9-.4,2.6-1.3,5.1-2.7,7.3l-2.7-2ZM57.5,18.4v-1.6c-.5-.3-1.2-.5-2-.4l-.7.7v1c0,0,.5,1.3.5,1.3.3.2.7.3,1.1.2l1-.4v-.8Z"/>
    <path class="cls-7" d="M80.5,24c-.8-.9-1.4-2-1.7-3-.3-1.1-.5-2.1-.5-3.4,0-1,.4-1.9.7-2.7.3-.9.7-1.7,1.1-2.5h-.6l-10.2,1.3-.3-5.3c2.6-.2,5.4-.3,8.2-.4,2.7,0,5.4-.4,7.7-.7h.7l-.9-1.8,2.4-.8.9,2.9h.9c0,.1,0-.2,0-.2l-.8-2,2.4-.6.7,3.5-2,.4v2.5c-.8.3-1.7.7-2.3,1.3-.8.6-1.6,1.3-2.3,2-.6.7-1.1,1.4-1.4,2.2-.4.8-.6,1.7-.6,2.6.1,1.1.6,2.1,1.5,3l1.2.6v.6c0,0-.4,2.9-.4,2.9h-.4c-1.6-.3-2.9-1.1-4-2.3Z"/>
    <path class="cls-7" d="M103.8,16.7c-.9-1.1-1.6-2.3-2.3-3.4h-.4l-9.2.8v-1l.2-4.4h7c0,0,0,0,0,0-.5-1.2-.8-2.4-.9-3.8h5.4c.1,1.4.4,2.7.8,4h.8l4-.2v-.2l-1.4-2.9,2.4-.8,1,3.8-.8.2v.7l.3,2.6-4.5.7v.2l2.8,4.9-2.5,2.1c-1-1.1-1.9-2.1-2.7-3.2ZM97.7,25.2c-1.4-.6-2.7-1.4-3.9-2.7l-.4-.7c.8-.5,1.6-1,2.3-1.5.7-.5,1.5-1,2.3-1.3.4.8,1,1.5,1.7,2,.7.5,1.4,1,2,1.3l2,.7v.5l-1,2.9h-.6c-1.6-.2-3-.6-4.5-1.2ZM111.2,5.3l2.4-.5.6,3.5-1.7.5-1.3-3.5Z"/>
    <path class="cls-7" d="M118.9,22.3c-1.5-2-2.3-4.1-2.7-6.5-.4-2.3-.6-4.8-.7-7.2h1.4l3.8.3v4.9c0,1.1.3,2.1.6,3.2.2,1.1.6,2.1,1.3,3l.5.2,1-.4,2.1,3.2c-1.2.9-2.5,1.3-4.1,1.1-1.3-.2-2.2-.8-3.1-1.8ZM132.7,17.8c-.3-1.4-.8-2.6-1.4-3.8-.7-1.2-1.6-2.3-2.4-3.4l3.6-2.8c1.2,1.4,2.1,3.1,2.8,4.9.7,1.8,1,3.6,1,5.6h-3.5c0,0,0-.4,0-.4Z"/>
    <path class="cls-7" d="M138.4,24.6v-.3c1-3.1,1.9-6.2,2.9-9.5,1-3.1,1.7-6.2,2.4-9.5h.5l4.7,1.4v.2l-1.4,4.7c1.1,0,2,.2,2.9.5.9.3,1.7.9,2.4,1.7.6.7,1.1,1.4,1.4,2.2.3.8.4,1.7.3,2.6l-.7,3,.5.2c1.3-.3,2.4-.7,3.5-1.2l1.7,2.9c-1,.7-2,1.1-3.1,1.5-1.1.5-2.3.6-3.6.5-.8-.1-1.5-.5-2-1.1-.8-.9-1.2-1.8-1.3-3l.5-3.6-.4-.8c-.5-.4-1.2-.6-1.9-.6-1.1,0-2,.6-2.8,1.4l-3.3,7.8-3.2-1.2Z"/>
  </g>
  <g>
    <g>
      <path class="cls-3" d="M25,8.1h-.9c-.1,0-.1.1,0,.2.1.1.1.2.1.4s-.2.3-.4.4c-.3.1-.6-.2-.6-.5s0-.2.1-.3h0c0-.1-.9-.1-.9-.1,0,.6-.2,1.2-.6,1.6l.6.6s0,.1-.1.1-.2.1-.3.1c-.2.2-.2.6.1.8.2.1.4.1.5,0s.2-.2.2-.3.1-.1.1-.1l.6.6h0c1-.9,1.5-2.1,1.5-3.5Z"/>
      <path class="cls-8" d="M23.6,11.7c-.1,0-.1,0,0,0l-.7-.7h0c0,.1-.1.3-.2.4-.2.1-.4.1-.6,0-.1-.1-.2-.2-.2-.4s0-.3.2-.4c.1-.1.2-.1.3-.1h0c0-.1-.6-.7-.6-.7h0c.4-.4.6-.9.6-1.5,0,0,0-.1.1-.1h.9s.1,0,.1.1v.2c0,.1-.1.2-.1.2,0,.1.1.2.2.3s0,0,.1,0c.2,0,.3-.2.3-.3s0-.2-.1-.3v-.2h.1c0,0,1,0,1,0,0,0,.1,0,.1.1,0,1.3-.5,2.5-1.5,3.5h0ZM22.9,10.9s.1,0,0,0l.7.6c.9-.9,1.4-2.1,1.4-3.3h-.8c.1.2.1.4.1.5,0,.2-.2.4-.4.4s-.3,0-.5-.1c-.1-.1-.2-.3-.2-.4s0-.2.1-.3h0c0,0-.8,0-.8,0,0,.6-.2,1.1-.6,1.5l.6.6h0c0,.2-.1.2-.1.2-.1,0-.2.1-.2.1-.1.1-.1.2-.1.4s.1.2.2.3.3.1.5,0c.1-.1.2-.2.2-.3-.3-.1-.2-.1-.1-.1h0Z"/>
    </g>
    <g>
      <path class="cls-1" d="M23.6,4.6h0l-.6.6s0,0,.1,0,.2,0,.3.2c.1.2.1.4,0,.5-.2.3-.5.3-.8,0-.1,0-.1-.2-.1-.3s-.1,0-.1,0l-.6.6c.4.4.6,1,.6,1.6h.9c.1,0,.1,0,0,0,0,.1-.1.2-.1.3,0,.3.3.5.6.5s.3-.2.4-.4c0-.1,0-.3-.1-.4v-.2h.9c0-1-.5-2.2-1.4-3.2Z"/>
      <path class="cls-8" d="M23.6,9.1c-.1,0-.2,0-.4-.1-.1-.1-.2-.3-.2-.4s0-.2.1-.3h0c0-.1-.9-.1-.9-.1,0,0-.1,0-.1-.1,0-.6-.2-1.1-.6-1.5h0l.6-.6h.1c.1,0,.1,0,.1,0,0,0,.1.2.1.2.1,0,.2,0,.4,0s.2,0,.3-.2c.1,0,.1-.3,0-.5-.1,0-.2-.2-.3-.2s-.1,0-.1,0h0c0,0,.6-.7.6-.7h.1c.9.9,1.5,2.2,1.5,3.5,0,0,0,.1-.1.1h-.9c0,.2,0,.4,0,.5,0,.2-.2.4-.4.3q.1,0,0,0ZM22.4,8.1h.9s.1,0,.1.1v.2c0,.1-.1.2-.1.2,0,.1.1.2.2.3s.1,0,.2,0c.2,0,.3-.2.3-.3s0-.2-.1-.3v-.2h.1c0,0,1,0,1,0,0-1.3-.5-2.4-1.4-3.3l-.6.5h0c.1,0,.3,0,.4.2.1.2.1.4,0,.6-.1,0-.2.2-.4.2s-.3,0-.5-.2-.1-.2-.1-.3h0l-.6.6c.3.6.5,1.1.6,1.7Z"/>
    </g>
    <g>
      <path class="cls-9" d="M20.1,3.2h0v.9c0,0,.1,0,.2,0,.1,0,.2,0,.4,0s.3.2.4.4c0,.3-.3.5-.6.5s-.2,0-.3,0c0,0-.1,0-.1,0v.9c.6,0,1.2.2,1.6.7l.6-.6s.1,0,.1,0,.1.2.1.3c.2.2.6.2.8,0,.1-.2.1-.4,0-.5s-.2-.2-.3-.2-.1,0-.1,0l.6-.6h0c-.8-1.2-2.1-1.7-3.4-1.7Z"/>
      <path class="cls-8" d="M21.6,6.6h0c-.5-.4-1-.7-1.6-.7,0,0-.1,0-.1,0v-.8s0,0,.1,0h.2c.2,0,.5,0,.6,0,.1,0,.1-.2.1-.4s-.2-.3-.3-.3-.2,0-.3,0h-.3v-1h0c1.3,0,2.6.5,3.5,1.5h0c0,0-.5.6-.5.6h0c.1,0,.3,0,.4.2.1.2.1.4,0,.6-.1,0-.2.2-.4.2s-.3,0-.5-.2-.1-.2-.1-.3h0l-.8.8q.1,0,0,0ZM20.1,5.8c.6,0,1.1.2,1.5.6l.6-.6h.1c.1,0,.1,0,.1,0,0,0,.1.2.1.2.1,0,.2,0,.4,0s.2,0,.3-.2c.1,0,.1-.3,0-.5-.1,0-.2-.2-.3-.2s-.1,0-.1,0h0c0,0,.6-.7.6-.7-.9-.9-2.1-1.4-3.3-1.4v.8h.1c0,0,.3,0,.4,0,.2,0,.4.2.4.4s0,.3-.1.5c-.1,0-.3.2-.4.2s-.2,0-.3,0h-.1v.8Z"/>
    </g>
    <g>
      <path class="cls-10" d="M16.6,4.6h0l.6.6s.1,0,.1,0,.1-.2.2-.3c.2,0,.4,0,.5,0,.3.2.3.5.1.8-.1,0-.2,0-.3,0s-.1,0-.1,0l.6.6c.4-.4,1-.7,1.6-.7v-.7c0,0,.1,0,.1,0,.3,0,.4,0,.5,0,.3,0,.5-.3.5-.6s-.2-.3-.4-.4c-.1,0-.3,0-.4,0,0,0-.2,0-.2,0v-.8h0c-1.2,0-2.5.5-3.4,1.4Z"/>
      <path class="cls-8" d="M18.5,6.6h0l-.7-.6h0c0-.2.1-.2.1-.2.1,0,.2,0,.2,0,.1,0,.1-.2.1-.3s-.1-.2-.2-.3c-.1,0-.3,0-.5,0-.1,0-.2.2-.2.3s-.1,0-.1,0h-.1l-.6-.6h0c.9-.9,2.2-1.5,3.5-1.5,0,0,.1,0,.1,0v.9h.1c0-.4.3-.4.4-.4.2,0,.4.2.4.4s0,.3-.1.5c-.1,0-.3.2-.4.2s-.2,0-.3,0h-.1v.9s0,0-.1,0c-.5,0-1,.2-1.5.6h0ZM17.9,4.7c.1,0,.2,0,.3,0,.1,0,.2.2.2.4s0,.3-.2.4c-.1,0-.2,0-.3.2h0c0,0,.6.7.6.7.4-.4.9-.6,1.5-.6v-.9s0,0,.1,0h.2c.2,0,.4,0,.6,0,.1-.1.1-.2.1-.4s-.2-.3-.3-.3-.2,0-.3,0h-.3v-1c-1.3,0-2.4.5-3.3,1.4l.6.6h0c0-.2.1-.3.2-.4,0,0,.2,0,.3,0Z"/>
    </g>
    <g>
      <path class="cls-4" d="M15.1,8.1h.9c.1,0,.1-.1,0-.2v-.3c0-.2.2-.3.4-.4.3-.1.6.2.6.5s0,.2-.1.3h0c0,.1.9.1.9.1,0-.6.2-1.2.6-1.6l-.6-.6s0,0,.1,0,.2,0,.3,0c.2-.2.2-.6-.1-.8-.2,0-.4,0-.5,0s-.2.2-.2.3-.1,0-.1,0l-.6-.6h0c-1,.8-1.6,2.1-1.6,3.4Z"/>
      <path class="cls-8" d="M17.9,8.2h-.9s-.1,0-.1-.1v-.2c0,0,.1-.2.1-.2,0,0-.1-.2-.2-.3s-.2,0-.4,0-.3.2-.3.3,0,.2.1.3v.2h-.1c0,.1-.9.1-.9.1,0,0-.1,0-.1-.1,0-1.3.5-2.6,1.5-3.5h.1l.6.6h0c0-.2.1-.3.2-.4.2,0,.4,0,.6,0,.1,0,.2.2.2.4s0,.3-.2.4c-.1,0-.2,0-.3.2h0c0,0,.6.7.6.7h0c-.2.5-.5,1-.5,1.7,0,0,0,0,0,0ZM16.5,7.1c.1,0,.2,0,.4,0,.1,0,.2.3.2.4s0,.2-.1.3h0c0,0,.8,0,.8,0,0-.6.2-1.1.6-1.5l-.6-.5h0c0-.2.1-.2.1-.2.1,0,.2,0,.2,0,.1,0,.1-.2.1-.3s-.1-.2-.2-.3c-.1,0-.3,0-.5,0-.1,0-.2.2-.2.3s-.1,0-.1,0h-.1l-.6-.6c-.9.9-1.4,2.1-1.4,3.3h.9c0-.3-.1-.5,0-.6,0-.2.2-.4.4-.4,0-.1.1-.1.1-.1Z"/>
    </g>
    <g>
      <path class="cls-2" d="M16.6,11.6h0l.6-.6s0-.1-.1-.1-.2-.1-.3-.2c-.1-.2-.1-.4,0-.5.2-.3.5-.3.8-.1.1.1.1.2.1.3s.1.1.1.1l.6-.6c-.4-.4-.6-1-.6-1.6h-.9c-.1,0-.1-.1,0-.2,0-.2,0-.3,0-.4,0-.3-.3-.5-.6-.5s-.3.2-.4.4c0,0,0,.3.1.4v.2h-.9c-.1,1.2.4,2.4,1.4,3.4Z"/>
      <path class="cls-8" d="M16.6,11.7s0,0,0,0c-1-1-1.5-2.2-1.5-3.6,0,0,0-.1.1-.1h.8c0,0-.1-.3,0-.5,0-.2.2-.4.4-.4s.3,0,.5,0c.1,0,.2.3.2.4s0,.2-.1.3h0c0,0,.9,0,.9,0,0,0,.1,0,.1.1,0,.6.2,1.1.6,1.5h0c0,.1-.6.7-.6.7h-.1c-.1,0-.1-.1-.1-.1,0-.1-.1-.2-.1-.2-.1-.1-.2-.1-.4-.1s-.2.1-.3.2c-.1.1-.1.3,0,.5.1.1.2.2.3.2s.1.1.1.1h0c0,.1-.8.8-.8.8h0ZM15.2,8.2c0,1.3.5,2.4,1.4,3.3l.6-.6h0c-.1,0-.3-.1-.4-.2-.1-.2-.1-.4,0-.6.1-.1.2-.2.4-.2s.3,0,.5.2c.1.1.1.2.1.3h0l.6-.6c-.4-.4-.6-.9-.6-1.5h-.8s-.1,0-.1-.1v-.2c0,0,.1-.2.1-.2,0,0-.1-.2-.2-.3s-.2,0-.4,0-.3.2-.3.3,0,.2.1.3v.2h-.1c0,.1-.9,0-.9,0h0Z"/>
    </g>
    <g>
      <path class="cls-6" d="M20.1,13.1h0v-.9c0-.1-.1-.1-.2-.1-.1.1-.2.1-.4.1s-.3-.2-.4-.4c-.1-.3.2-.6.5-.6s.2,0,.3.1c0,0,.1,0,.1-.1v-.9c-.6,0-1.2-.2-1.6-.6l-.6.6s-.1,0-.1-.1-.1-.2-.1-.3c-.2-.2-.6-.2-.8,0-.1.2-.1.4,0,.5s.2.2.3.2.1.1.1.1l-.6.6h0c.9,1.1,2.1,1.7,3.5,1.7Z"/>
      <path class="cls-8" d="M20.1,13.1c-1.3,0-2.6-.5-3.5-1.5h0l.6-.6h0c-.1,0-.3-.1-.4-.2-.1-.2-.1-.4,0-.6.1-.1.2-.2.4-.2s.3,0,.5.2c.1.1.1.2.1.3h0l.6-.6h.1c.4.4.9.6,1.5.6,0,0,.1,0,.1.1v.9s0,.1-.1.1h-.2c-.2-.1-.4-.1-.6.1s-.1.2-.1.4.2.3.3.3.2,0,.3-.1h.3c0,.1.1.8.1.8h0ZM16.7,11.6c.9.9,2.1,1.4,3.3,1.4v-.8h-.1c-.1.1-.3.1-.4.1-.2,0-.4-.2-.4-.4s0-.3.1-.5c.1-.1.3-.2.4-.2s.2,0,.3.1h.1v-.8c-.6,0-1.1-.2-1.5-.6l-.6.6h-.1c-.1,0-.1-.1-.1-.1,0-.1-.1-.2-.1-.2-.1-.1-.2-.1-.4-.1s-.2.1-.3.2c-.1.1-.1.3,0,.5.1.1.2.2.3.2s.1.1.1.1h0c0,.1-.6.5-.6.5Z"/>
    </g>
    <g>
      <path class="cls-5" d="M23.6,11.6h0l-.7-.6s-.1,0-.1.1-.1.2-.2.3c-.2.1-.4.1-.5,0-.3-.2-.3-.5-.1-.8.1-.1.2-.1.3-.1s.1-.1.1-.1l-.6-.6c-.4.4-1,.6-1.6.6v.9c0,.1-.1.1-.1.1-.1-.1-.2-.1-.3-.1-.3,0-.5.3-.5.6s.2.3.4.4c.1,0,.3,0,.4-.1,0,0,.2,0,.2.1v.9h0c1,0,2.3-.6,3.3-1.6Z"/>
      <path class="cls-8" d="M20.1,13.1q-.1,0,0,0v-1h-.2c-.1.1-.3.1-.4.1-.2,0-.4-.2-.4-.4s0-.3.1-.5c.1-.1.3-.2.4-.2s.2,0,.3.1h.1v-.9s0-.1.1-.1c.6,0,1.1-.2,1.5-.6h.1l.6.6h0c0,.2-.1.2-.1.2-.1,0-.2.1-.2.1-.1.1-.1.2-.1.4s.1.2.2.3.3.1.5,0c.1-.1.2-.2.2-.3s.1-.1.1-.1h0l.6.6h0c-.9,1.2-2.2,1.7-3.5,1.7ZM20,12h.2v1c1.3,0,2.4-.5,3.3-1.4l-.6-.6h0c0,.1-.1.3-.2.4-.2.1-.4.1-.6,0-.1-.1-.2-.2-.2-.4s0-.3.2-.4c.1-.1.2-.1.3-.1h0c0-.1-.6-.7-.6-.7-.4.4-.9.6-1.5.6v.9s0,.1-.1.1h-.2c-.2-.1-.4-.1-.6.1s-.1.2-.1.4.2.3.3.3c.1,0,.2,0,.4-.2-.1,0,0,0,0,0Z"/>
    </g>
  </g>
</svg>