<?xml version="1.0" encoding="UTF-8"?>
<svg id="_レイヤー_2" data-name="レイヤー 2" xmlns="http://www.w3.org/2000/svg" viewBox="0 0 890.66 66.09">
  <defs>
    <style>
      .cls-1 {
        fill: none;
        stroke: #e95816;
        stroke-miterlimit: 10;
        stroke-width: 3px;
      }
    </style>
  </defs>
  <g id="_レイヤー_1-2" data-name="レイヤー 1">
    <g>
      <path class="cls-1" d="M27.24,3.04c7.47,0,11.07.63,14.58,2.7,5.22,2.88,8.01,8.64,8.01,16.29,0,9.81-4.41,17.73-11.79,20.97-3.96,1.8-6.75,2.16-15.84,2.16h-4.77v17.91H1.5V3.04h25.74ZM17.43,31.83h5.4c4.23,0,6.03-.27,7.83-1.26,2.07-1.08,3.33-3.42,3.33-6.3,0-2.43-.9-4.32-2.52-5.13-1.71-.9-3.33-1.08-8.46-1.08h-5.58s0,13.77,0,13.77Z"/>
      <path class="cls-1" d="M131.55,3.04v15.03h-25.74v8.37h25.47v13.95h-25.47v8.73h25.74v13.95h-40.86V3.04h40.86Z"/>
      <path class="cls-1" d="M187.71,63.06h-15.75L189.33,3.03h23.85l17.28,60.03h-16.2l-3.6-12.96h-19.26l-3.69,12.96ZM200.94,13.57l-6.3,22.59h12.69l-6.39-22.59Z"/>
      <path class="cls-1" d="M314.07,26.88h-.72c-2.61-5.49-8.37-9-14.94-9-3.78,0-7.2,1.35-9.72,3.87-2.79,2.79-4.14,6.84-4.14,12.42,0,10.89,4.95,17.01,13.77,17.01,6.84,0,11.7-3.24,15.03-10.17h.72v15.48c-6.39,5.85-11.7,8.1-19.53,8.1-16.11,0-25.92-12.42-25.92-32.85,0-10.8,2.7-18.72,7.92-23.67,4.68-4.32,11.07-6.57,18.54-6.57,7.92,0,13.14,2.07,18.99,7.65v17.73h0Z"/>
      <path class="cls-1" d="M397.04,3.04v15.03h-25.74v8.37h25.47v13.95h-25.47v8.73h25.74v13.95h-40.86V3.04h40.86Z"/>
      <path class="cls-1" d="M463.1,25.9l12.33-12.33,7.2,7.2-12.33,12.32,12.33,12.24-7.2,7.2-12.33-12.24-12.33,12.24-7.2-7.2,12.33-12.24-12.33-12.33,7.2-7.2,12.33,12.34Z"/>
      <path class="cls-1" d="M555.08,3.04c7.47,0,11.07.63,14.58,2.7,5.22,2.88,8.01,8.64,8.01,16.29,0,9.81-4.41,17.73-11.79,20.97-3.96,1.8-6.75,2.16-15.84,2.16h-4.77v17.91h-15.93V3.04h25.74ZM545.27,31.83h5.4c4.23,0,6.03-.27,7.83-1.26,2.07-1.08,3.33-3.42,3.33-6.3,0-2.43-.9-4.32-2.52-5.13-1.71-.9-3.33-1.08-8.46-1.08h-5.58v13.77Z"/>
      <path class="cls-1" d="M634.46,3.04v60.03h-15.93V3.04h15.93Z"/>
      <path class="cls-1" d="M719.42,3.04v15.03h-25.74v8.37h25.47v13.95h-25.47v8.73h25.74v13.95h-40.86V3.04h40.86Z"/>
      <path class="cls-1" d="M806.18,26.88h-.72c-2.61-5.49-8.37-9-14.94-9-3.78,0-7.2,1.35-9.72,3.87-2.79,2.79-4.14,6.84-4.14,12.42,0,10.89,4.95,17.01,13.77,17.01,6.84,0,11.7-3.24,15.03-10.17h.72v15.48c-6.39,5.85-11.7,8.1-19.53,8.1-16.11,0-25.92-12.42-25.92-32.85,0-10.8,2.7-18.72,7.92-23.67,4.68-4.32,11.07-6.57,18.54-6.57,7.92,0,13.14,2.07,18.99,7.65v17.73Z"/>
      <path class="cls-1" d="M889.16,3.04v15.03h-25.74v8.37h25.47v13.95h-25.47v8.73h25.74v13.95h-40.86V3.04h40.86Z"/>
    </g>
  </g>
</svg>